<svg preserveAspectRatio="xMidYMid meet" data-bbox="0 0 167 48" xmlns="http://www.w3.org/2000/svg" viewBox="0 0 167 48" height="48" width="167" data-type="color" role="presentation" aria-hidden="true" aria-label="">
    <g>
        <g clip-path="url(#f2634d0b-0741-42a2-ad4e-fa857e1e05e6_comp-m1kjdmeq)">
            <path fill="#ffffff" d="M167 0v48H0V0z" data-color="1"></path>
            <path fill="#ED1A21" d="M167 0H0v48h167z" data-color="2"></path>
            <path fill="#ffffff" d="M129.348 35.56a2.46 2.46 0 0 1-1.758-.694 2.35 2.35 0 0 1-.731-1.733c0-.675.245-1.277.724-1.751a2.42 2.42 0 0 1 1.765-.718c.692 0 1.287.24 1.774.71.486.47.742 1.077.742 1.76a2.33 2.33 0 0 1-.742 1.736c-.483.459-1.082.69-1.778.69z" data-color="1"></path>
            <path fill="#ffffff" d="M148.802 35.325h-4.099v-8.334c0-1.509-.272-2.203-.497-2.523-.28-.39-.782-.583-1.529-.583-.964 0-1.781.459-2.496 1.397v10.036h-4.158V20.524h4.158v.822c1.019-.722 2.139-1.084 3.348-1.084.968 0 1.882.25 2.714.748a4.95 4.95 0 0 1 1.922 2.068c.431.86.637 2.13.637 3.886z" data-color="1"></path>
            <path fill="#ffffff" d="M156.943 35.325h-4.099V13.447h4.099z" data-color="1"></path>
            <path fill="#ffffff" d="M12 13.447h4.92V31.22h9.69v4.078H12z" data-color="1"></path>
            <path fill="#ffffff" d="M31.766 35.294v-1.933h2.578V15.353h-2.578v-1.906h10.049v1.906h-2.61v17.95h2.61v1.995h-10.05z" data-color="1"></path>
            <path fill="#ffffff" d="M48.422 13.447h7.26c1.89 0 3.722.12 4.982.892 1.622.983 2.368 2.828 2.368 4.645 0 2.651-1.318 4.345-3.029 4.735v.15c1.47.209 3.512 1.787 3.512 5 0 1.61-.242 3.246-1.712 4.704-1.59 1.61-3.48 1.725-6.268 1.725h-7.11v-21.85zm4.71 8.902c3.869 0 5.129-.12 5.129-2.886s-1.949-2.651-2.94-2.651h-2.19zm0 9.496h2.399c1.92 0 3.119-.892 3.119-3.126 0-1.042-.269-2.26-1.412-2.74-.688-.265-2.4-.265-4.11-.265v6.13z" data-color="1"></path>
            <path fill="#ffffff" d="M75.81 35.294h-4.77V13.447h7.108c3.57 0 8.1.475 8.1 6.34 0 2.766-1.112 4.88-4.2 5.803l4.8 9.704h-5.25l-4.17-8.928h-1.621v8.928zm0-12.413c2.73 0 3.15 0 3.839-.239 1.528-.536 1.649-1.725 1.649-2.917 0-1.516-.478-2.261-1.439-2.62-.75-.266-1.35-.266-4.052-.266v6.042z" data-color="1"></path>
            <path fill="#ffffff" d="M92.188 35.294v-1.933h2.578V15.353h-2.579v-1.906h10.049v1.906h-2.61v17.95h2.61v1.995H92.187z" data-color="1"></path>
            <path fill="#ffffff" d="M118.715 19.313c-.688-1.308-2.1-2.443-3.811-2.443-2.52 0-2.578 1.875-2.578 2.115 0 1.547 1.439 2.172 2.788 2.65l2.788 1.011c1.319.475 2.882 1.37 3.749 2.558.268.36 1.229 1.787 1.229 3.84 0 .984 0 3.9-3.119 5.776-1.291.772-3.119 1.1-4.231 1.1-3.869 0-6.152-.923-8.132-4.434l3.749-2.47c.809 1.845 2.279 2.976 4.169 2.976 1.05 0 2.94-.475 2.94-2.47 0-1.636-.898-1.995-4.2-3.276-3.329-1.28-6.21-2.74-6.21-7.053 0-3.6 2.64-6.193 7.171-6.193 3.239 0 5.518 1.312 7.319 3.928l-3.629 2.38z" data-color="1"></path>
        </g>
        <defs fill="none">
            <clipPath id="f2634d0b-0741-42a2-ad4e-fa857e1e05e6_comp-m1kjdmeq">
                <path fill="#ffffff" d="M167 0v48H0V0z"></path>
            </clipPath>
        </defs>
    </g>
</svg>